<svg id="Layer_2" data-name="Layer 2" xmlns="http://www.w3.org/2000/svg" viewBox="0 0 848.26 262.5"><defs><style>.cls-1{fill:#f45b66;}.cls-2{fill:#bfd7ea;}.cls-3{fill:#fff;}</style></defs><path class="cls-1" d="M129.28,122.56a4.5,4.5,0,0,1-4.5-4.5V78.17a21.31,21.31,0,0,1,21.28-21.28H186a4.5,4.5,0,0,1,0,9H146.06a12.3,12.3,0,0,0-12.28,12.28v39.89A4.51,4.51,0,0,1,129.28,122.56Z"/><path class="cls-2" d="M702.2,205.6H662.32a4.5,4.5,0,0,1,0-9H702.2a12.3,12.3,0,0,0,12.29-12.28V144.44a4.5,4.5,0,0,1,9,0v39.88A21.3,21.3,0,0,1,702.2,205.6Z"/><path class="cls-3" d="M217.07,168.46l-17-23.85a53.07,53.07,0,0,1-5.93.32H174.24v23.53H166.4V94.26h27.77c18.87,0,30.31,9.54,30.31,25.44,0,11.66-6.14,19.82-17,23.32l18.13,25.44Zm-.43-48.76c0-11.87-7.84-18.66-22.68-18.66H174.24v37.21H194C208.8,138.25,216.64,131.36,216.64,119.7Z"/><path class="cls-3" d="M295.5,161.68v6.78H243V94.26h50.88V101h-43v26.4h38.37v6.68H250.88v27.56Z"/><path class="cls-3" d="M367.48,161.68v6.78H306.63v-5.4l49.19-62H307.37V94.26h58.84v5.41l-49.08,62Z"/><path class="cls-3" d="M383,94.26h7.85v74.2H383Z"/><path class="cls-3" d="M408.6,94.26h7.85v67.42H458v6.78H408.6Z"/><path class="cls-3" d="M471,94.26h7.85v74.2H471Z"/><path class="cls-3" d="M549.16,161.68v6.78H496.68V94.26h50.89V101h-43v26.4H542.9v6.68H504.53v27.56Z"/><path class="cls-3" d="M629.61,94.26v74.2h-6.47l-47.7-60.21v60.21H567.6V94.26h6.46l47.81,60.21V94.26Z"/><path class="cls-3" d="M668.19,101H642.11V94.26h60V101H676v67.42h-7.84Z"/></svg>